<svg enable-background="new 0 0 56 56" viewBox="0 0 56 56" xmlns="http://www.w3.org/2000/svg"><path d="m36.985 0h-29.022c-.808 0-1.463.655-1.463 1.926v53.074c0 .345.655 1 1.463 1h40.074c.808 0 1.463-.655 1.463-1v-42.022c0-.696-.093-.92-.257-1.085l-11.636-11.636c-.165-.164-.389-.257-.622-.257z" fill="#e9e9e0"/><path d="m37.5.151v11.849h11.849z" fill="#d9d7ca"/><path d="m48.037 56h-40.074c-.808 0-1.463-.655-1.463-1.463v-15.537h43v15.537c0 .808-.655 1.463-1.463 1.463z" fill="#ec6630"/><g fill="#fff"><path d="m17.455 42.924v10.076h-1.641v-4.539h-4.361v4.539h-1.668v-10.076h1.668v4.416h4.361v-4.416z"/><path d="m27.107 42.924v1.121h-3.007v8.955h-1.654v-8.955h-3.008v-1.121z"/><path d="m36.705 42.924h1.668v10.076h-1.668v-6.932l-2.256 5.605h-1.449l-2.27-5.605v6.932h-1.668v-10.076h1.668l2.994 6.891z"/><path d="m42.57 42.924v8.832h4.635v1.244h-6.303v-10.076z"/></g><g fill="#ec6630"><path d="m23.207 16.293c-.391-.391-1.023-.391-1.414 0l-6 6c-.391.391-.391 1.023 0 1.414l6 6c.195.195.451.293.707.293s.512-.098.707-.293c.391-.391.391-1.023 0-1.414l-5.293-5.293 5.293-5.293c.391-.391.391-1.023 0-1.414z"/><path d="m41.207 22.293-6-6c-.391-.391-1.023-.391-1.414 0s-.391 1.023 0 1.414l5.293 5.293-5.293 5.293c-.391.391-.391 1.023 0 1.414.195.195.451.293.707.293s.512-.098.707-.293l6-6c.391-.391.391-1.023 0-1.414z"/></g></svg>