<svg height="315pt" preserveAspectRatio="xMidYMid meet" viewBox="0 0 321 315" width="321pt" xmlns="http://www.w3.org/2000/svg"><g fill="#FFF" transform="matrix(.1 0 0 -.1 0 315)"><path d="m1410 3015c-300-41-553-164-773-375-213-204-346-441-408-730-33-151-33-429 0-580 60-276 184-504 385-706 266-265 614-404 1011-404 69 0 125 4 125 9s-64 9-142 9c-247 1-443 47-650 154-383 196-657 574-724 997-20 128-15 418 10 526 39 171 117 353 213 498 63 95 268 300 363 362 168 112 370 191 562 221 148 24 395 15 539-19 524-124 921-531 1041-1067 20-90 23-132 23-290-1-197-7-240-56-404-68-222-181-408-349-577-58-58-120-114-137-124-31-18-43-35-25-35 5 0 42 28 83 63 256 219 431 522 485 840 21 125 15 422-11 537-89 400-342 739-695 934-259 144-573 202-870 161z"/><path d="m1425 2855c-185-29-369-102-522-207-104-71-256-224-322-323-100-152-168-320-203-500-16-88-16-340 1-420 75-357 259-632 550-823 164-108 353-173 561-194 111-11 270-5 270 11 0 4-44 5-97 4-79-3-94-2-79 8 32 20 87 28 133 20 46-9 61 4 17 15-41 10-126-2-175-26-45-22-47-22-140-7-138 24-279 67-279 86 0 5 10 11 23 15 47 12 101 5 167-24 92-40 149-40 243 1 61 27 79 31 130 26 45-4 56-2 48 6-22 22-121 12-185-18-76-36-152-38-213-7-72 37-127 45-196 27-48-12-67-13-89-4-15 6-28 14-28 18 0 3 29 18 65 34 84 36 151 36 225 1 79-38 155-38 239 0 54 24 73 28 132 24 81-4 78 13-3 20-42 3-68-2-130-27-95-39-145-39-218-4-79 38-173 38-253 1-32-16-68-28-81-28-24 0-182 98-173 107 3 2 23-5 46-16 60-31 143-28 217 6 80 38 158 38 231 0 71-37 149-37 227-1 70 32 124 40 167 25 35-12 53-6 29 9-32 20-135 11-196-17-80-37-149-37-226 1-78 37-152 38-229 3-79-37-125-42-179-22-25 9-67 25-94 35-26 10-62 32-79 49l-32 31h42c23 0 71-13 111-30 90-38 134-38 224 0 93 40 148 40 238 0s140-39 226 1c60 28 73 31 136 27 51-4 66-3 58 6-6 6-41 11-78 10-51 0-80-7-122-27-75-36-144-36-219 0-77 37-164 37-241 0-76-37-141-36-230 3-46 20-85 30-118 30-35 0-54 5-65 18-23 26-22 29 19 42 47 16 97 9 166-24 76-36 160-36 237 0 85 41 124 42 210 5 96-41 172-42 251-5 57 28 129 36 185 21 28-8 29-8 11 7-33 26-130 21-196-10-78-38-166-38-237-1s-147 37-223 0c-78-38-165-38-237 0-56 29-137 36-189 17-21-8-31-7-45 6-11 10-19 20-19 24 0 3 20 16 45 28 63 31 121 28 207-8 93-40 148-40 241 1 60 27 79 31 126 26 31-3 81-17 111-31 76-36 137-35 220 5 54 25 74 30 120 27 30-2 63-8 73-12 10-5 17-4 17 2 0 18-71 35-121 29-26-3-70-17-98-31-70-36-146-35-221 1-42 20-70 27-120 27s-78-7-120-27c-39-19-71-27-110-27s-71 8-110 27c-74 36-166 37-228 4-42-21-44-22-58-4-22 29-17 37 52 67 87 39 149 39 224 0 77-39 163-39 240 1 75 38 136 38 221 0 87-40 153-40 239 0 69 31 148 37 190 15 14-7 20-8 20 0 0 16-46 30-101 30-34 0-73-10-119-30-40-18-86-30-110-30s-70 12-110 30c-91 40-149 40-240 0-87-38-133-38-220 0-83 37-154 39-220 9-81-38-98-40-115-16-22 31-18 47 11 47 14 0 56 14 94 30 40 18 86 30 110 30s70-12 110-30c91-40 149-40 240 0 87 38 133 38 220 0 92-40 149-40 243 1 71 32 125 35 196 13 16-5 22-4 18 3-11 18-94 36-134 28-21-3-65-18-97-33-80-35-134-35-216 3-87 39-152 39-239 0-84-38-138-38-222 0s-151 39-234 3c-33-15-75-29-93-32-29-5-35-2-52 27-11 17-20 34-20 37s26 5 58 6c41 0 72 8 109 27 72 37 149 37 229 0 80-38 148-38 228 0 80 37 157 37 229 0 72-38 159-38 237 0 76 37 152 37 223 0 72-38 159-38 237 0 75 37 147 37 226 0s156-37 234 0c66 32 150 36 205 10 37-18 40-24 25-53-9-17-13-17-52-3-54 19-113 11-184-22-76-36-143-35-225 1-81 37-152 38-224 4-68-32-104-38-158-30-39 6-45 4-36-7 21-24 114-16 189 17 87 38 133 38 220 0 91-40 149-40 240 0 86 38 165 40 208 5 1-1-2-13-8-27-11-22-15-24-75-20-56 4-73 0-131-27-86-40-134-40-224-1s-149 40-238 1c-37-16-74-31-82-34-9-3-4-6 11-6 15-1 53 11 85 26 79 36 132 36 214-2 88-40 162-40 240 0 51 26 149 40 165 23 3-3 1-17-6-31-9-20-20-26-58-29-26-3-73-17-105-31-79-36-151-36-226 0-69 33-156 37-218 9-23-10-42-23-42-28 0-11 2-11 51 12 64 29 128 26 209-10 89-39 141-39 230 0 65 28 120 39 120 23-1-22-43-57-96-79-126-54-162-55-260-10-38 17-73 26-108 26-60 0-98-9-91-21 3-4 19-3 36 3 41 14 96 5 165-26 78-36 165-36 234-1 28 14 50 22 50 18 0-5-23-32-50-61-49-51-51-52-109-52-42 0-75 7-116 26-63 29-153 45-141 25 4-6 21-11 37-11 17 0 61-14 99-30 40-18 86-30 112-30l43-1-35-29c-42-37-57-37-121-4-28 14-53 23-56 20-7-6 55-45 85-52 24-7 29-20 10-27-7-2-10-8-6-12 13-13 88 45 190 146 156 155 267 348 325 567 34 130 43 370 19 512-54 308-225 589-481 788-250 194-608 287-920 237zm393-24c181-35 305-86 462-189 103-67 255-218 328-325 126-183 205-412 218-632l7-118-33 7c-19 3-58 17-88 31-76 35-144 34-232-5-38-16-85-30-105-30s-70 14-112 30c-99 40-153 40-246-1-85-37-144-36-225 5-64 33-147 35-211 6-55-25-53-26-74 10-18 29-18 31 2 56 56 71 48 158-20 218-107 97-269 26-269-118 0-52 17-96 37-96 8 0 39-11 69-25s65-25 78-25c20 0 46-32 46-57 0-10-70 8-122 32-74 35-141 33-228-5s-133-38-220 0c-88 39-153 40-230 4-83-39-145-42-214-11l-56 26v53c0 138 54 347 126 490 86 171 239 351 391 460 265 191 610 269 921 209zm-367-990c51-52 33-128-37-157-82-34-161 54-120 134 20 39 41 51 89 52 29 0 45-7 68-29zm-573-259c78-35 147-34 231 3 83 38 139 38 221 1 86-39 154-39 239 0 84 37 145 37 226-1 81-39 159-39 235 0 75 38 144 38 224 0 83-39 150-39 236 0 84 37 145 38 225 1 31-14 68-26 81-26 29 0 36-12 28-45s-30-32-102 2c-78 38-164 38-242 0-76-37-137-36-231 4-87 37-141 36-229-5-75-35-146-35-220 1-42 20-70 27-120 27s-78-7-120-27c-75-36-145-36-220 0-76 37-163 36-240-1-39-18-71-26-110-26s-71 8-110 26c-77 37-164 38-240 1-69-34-141-36-211-6-45 20-49 24-49 55v33l48-21c64-29 142-28 207 2 101 46 147 46 243 2zm2-84c65-33 165-31 240 5 75 37 132 36 223-4 60-27 79-31 126-26 31 3 81 17 111 31 74 35 136 34 209-1 86-41 152-42 239-4 92 41 142 41 235 0 60-27 79-31 126-26 31 3 81 17 111 31 75 35 133 34 220-4 38-16 76-30 85-30 14 0 16-6 11-32-3-17-8-33-10-36-2-2-36 10-74 27-92 40-163 42-242 5-88-41-134-42-217-5-94 41-165 42-243 4-77-37-155-37-233 0-79 37-158 37-230 0-73-38-151-38-230 0-79 37-158 37-230 0-73-38-161-38-234 0-72 37-149 37-229 0-104-49-235-29-257 40-12 38-5 42 35 21 54-30 160-25 228 8 47 24 65 27 120 24 42-3 81-13 110-28zm-6-83c75-35 159-35 235 2 77 37 147 37 225 1 79-38 154-38 233-1 79 36 148 37 227 0 80-37 160-37 236 0 75 36 154 36 230-1 75-35 154-35 229 0 73 33 126 40 176 21 130-49 135-52 135-72 0-45-14-48-70-20-31 16-78 29-110 32-48 5-67 1-127-26-92-40-153-41-225-5-29 15-76 28-108 31-48 5-67 1-127-26-91-40-149-41-229-4-89 41-146 42-231 4-92-40-155-41-227-5-28 14-76 28-107 31-47 5-66 1-126-26-93-40-154-41-232-4-79 38-164 38-244 1-105-51-228-30-235 40-4 37-4 37 34 17 39-20 150-20 189 1 90 49 159 52 249 9zm-4-82c42-20 70-27 120-27s78 7 120 27c74 36 145 36 220 0 78-37 164-38 242 0 77 37 149 37 221 0 74-38 160-38 241 0 79 37 148 37 219 0 74-38 160-38 239 0 76 37 142 37 225 0 50-22 63-33 63-51 0-33-22-36-71-11-64 32-147 30-224-7-80-38-139-38-223 0-85 38-155 38-236 0-89-41-130-42-213-5-94 41-166 42-248 5-90-41-129-42-216-4-95 42-164 43-247 4-87-41-126-42-211-5-96 43-163 44-246 6-32-15-76-30-96-32-52-7-108 13-120 44-18 47-13 52 34 36 54-19 116-12 187 21 75 35 146 35 220-1zm8-87c72-36 155-36 226 1s159 37 236 0c76-37 153-37 224 0s159 37 236 0c76-37 136-36 236 4 91 37 137 36 224-5 75-35 148-35 226 1 86 39 138 41 213 8 33-15 61-29 61-31 0-1-4-14-10-28l-9-25-43 19c-63 29-127 26-208-10-44-19-85-30-115-30s-71 11-115 30c-91 40-149 40-237 0-41-19-82-30-110-30s-71 11-113 30c-47 20-85 30-119 30-36 0-72-9-118-30-87-40-141-40-225 0-85 40-146 40-235 0-41-19-82-30-110-30-27 0-72 12-115 30-94 40-152 40-236 0-46-21-79-30-116-30-47 0-54 3-64 25-22 47-17 51 51 47 45-3 74 1 102 13 91 40 111 45 161 41 28-2 74-16 102-30z"/><path d="m877 1933c-4-3-7-66-7-140v-133l36-15c37-15 109-20 138-9 9 3 16 17 16 30 0 21-4 23-62 26l-63 3-3 123c-3 120-3 122-26 122-12 0-26-3-29-7z"/><path d="m1107 1934c-11-11-9-264 2-264 5 0 21 4 36 10l26 10-3 122-3 123-25 3c-14 2-29 0-33-4z"/><path d="m1597 1934c-9-10-9-226 1-240 4-7 21-9 40-7 26 4 32 9 25 22-4 9-8 63-10 121-2 102-3 105-25 108-13 2-27 0-31-4z"/><path d="m1790 1830c0-103-2-113-23-134l-24-24 39-13c58-19 62-10 66 146l4 135h-31-31z"/><path d="m1930 1785c0-162 1-166 44-149 14 5 16 28 16 155v149h-30-30z"/><path d="m2078 1934c-5-4-8-61-8-126v-118h30 30v95 95h40c59 0 103-42 103-98 0-45-21-78-58-92-18-7-15-10 19-25 46-20 60-16 86 27 45 73 17 177-59 222-35 20-169 35-183 20z"/><path d="m1806 893c-3-87-11-286-16-443-6-157-12-308-13-336-2-50-2-51 23-43 155 50 481 184 473 194-5 4-2 5 5 1 15-9 83 14 76 26-3 4 3 5 12 1 12-4 15-3 10 5-4 7-2 10 7 6 8-3 40 5 71 16l57 22-30 28c-19 19-38 28-51 25-11-2-18 0-15 6 4 5 11 7 16 4 25-16 4 16-40 59-31 31-54 46-62 41s-10-4-5 4c4 6 1 17-6 25-7 7-36 37-64 67-69 72-139 137-129 120 5-10 4-12-4-7-6 4-9 11-6 15 2 5-5 17-17 27-12 11-18 13-14 7 4-8 2-13-4-13-7 0-9 7-6 16 8 22-11 44-32 37-12-3-13-2-5 4 16 11-89 119-106 109-6-4-9-2-6 6 3 7-21 39-53 71l-59 59zm194-48c7-9 8-15 2-15-5 0-12 7-16 15-3 8-4 15-2 15s9-7 16-15zm20-34c0-5-7-12-16-15-14-5-15-4-4 9 14 17 20 19 20 6zm24-87c3-8 2-12-4-9s-10 10-10 16c0 14 7 11 14-7zm110-40c5-14 4-15-9-4-17 14-19 20-6 20 5 0 12-7 15-16zm332-336c4-7 4-10-1-6-4 4-14 3-22-4-10-8-17-8-26 1-9 10-8 11 6 6 10-4 17-2 17 4 0 15 17 14 26-1z"/></g></svg>