<svg height="400" viewBox="-10 -10 116 111" width="400" xmlns="http://www.w3.org/2000/svg" xmlns:xlink="http://www.w3.org/1999/xlink"><clipPath id="a"><path d="m0 0h7.75a45.5 45.5 0 1 1 0 91h-7.75v-20h7.75a25.5 25.5 0 1 0 0-51h-7.75zm36.251 0h32a27.75 27.75 0 0 1 21.331 45.5 27.75 27.75 0 0 1 -21.331 45.5h-32a53.6895 53.6895 0 0 0 18.7464-20h13.2526a7.75 7.75 0 1 0 0-15.5h-7.75a53.6895 53.6895 0 0 0 0-20h7.75a7.75 7.75 0 1 0 0-15.5h-13.2526a53.6895 53.6895 0 0 0 -18.7464-20z"/></clipPath><linearGradient id="b" gradientUnits="userSpaceOnUse" x1="7" x2="50" y1="64" y2="107"><stop offset="0" stop-color="#f9a03c"/><stop offset="1" stop-color="#f7974e"/></linearGradient><linearGradient id="c" gradientUnits="userSpaceOnUse" x1="2" x2="87" y1="-2" y2="84"><stop offset="0" stop-color="#f26d58"/><stop offset="1" stop-color="#f9a03c"/></linearGradient><linearGradient id="d" gradientUnits="userSpaceOnUse" x1="45" x2="108" y1="-10" y2="53"><stop offset="0" stop-color="#b84e51"/><stop offset="1" stop-color="#f68e48"/></linearGradient><g clip-path="url(#a)"><path d="m-128-102v300h300z" fill="url(#b)"/><path d="m-72-102h300v300z" fill="url(#d)"/><path d="m-100-102 300 300" fill="none" stroke="url(#c)" stroke-width="40"/></g></svg>