<svg enable-background="new 0 0 652 652" viewBox="0 0 652 652" xmlns="http://www.w3.org/2000/svg"><g fill="#00b8ee"><path d="m256.5 326.4v-.3c0-18.7 14.4-34.2 34.4-34.2 10 0 17 2.9 22.6 7.6 1.2 1 2.8 3.1 2.8 6.1 0 4.5-3.6 8-8.1 8-2.3 0-4.1-.9-5.2-1.8-3.5-2.7-7.1-4.5-12.3-4.5-9.7 0-16.7 8.5-16.7 18.6v.2c0 10.5 6.9 18.9 17.4 18.9 5.2 0 9.1-1.9 12.9-4.9.9-.8 2.7-1.7 4.8-1.7 4.2 0 7.5 3.4 7.5 7.6 0 2.3-1 4.2-2.6 5.6-5.6 5.1-12.6 8.7-23.5 8.7-19.5.1-34-15.2-34-33.9m223.6 24.3c0 4.9 4 8.9 8.9 8.9s8.9-3.9 8.9-8.9v-49.4c0-4.9-4-8.9-8.9-8.9s-8.9 4-8.9 8.9zm95.1-30.1c1.4-8.7 6.8-14.4 14.9-14.4 8.4 0 13.5 6 14.6 14.4zm16.8 39.8c9.7 0 17.3-3 23-8.2 1.3-1.2 2.3-3 2.3-5.3 0-4-2.9-7-6.9-7-1.9 0-3.1.5-4.4 1.4-3.9 3-8.4 4.7-13.8 4.7-8.7 0-15-4.8-16.8-13.8h38c4.6 0 8.3-3.4 8.3-8.5 0-14-9.9-31.8-31.6-31.8-19 0-32.4 15.4-32.4 34.2v.2c.1 20.2 14.7 34.1 34.3 34.1m-44.3-68c-7.3 0-13.2 4.5-16.8 10.8v-1.9c0-4.9-4-8.9-8.9-8.9s-8.9 4-8.9 8.9v49.4c0 4.9 4 8.9 8.9 8.9s8.9-4 8.9-8.9v-24.5c0-9.2 3.3-12.6 13.6-15.3 9.6-2.5 12.6-4.8 12.6-9.7-.1-5.4-3.9-8.8-9.4-8.8m-175.1 26.6c-7.2-2.4-14.2-4.4-14.1-8.2v-.2c0-2.8 3-4.2 7.8-4.3 4 0 8.5 1.4 13.7 4 1.2.6 2.1.9 3.5.9 4.2 0 7.5-3.2 7.5-7.4 0-3.2-1.7-5.7-4.4-7-6.4-3.2-13-4.9-19.9-4.9-13.2 0-24.7 7.1-24.8 20.5v.2c0 13 11.4 17.1 20.5 20.1 7.3 2.4 14.6 4 14.4 8v.2c0 2.9-3.2 4.8-8.7 4.8-5.3 0-11.5-1.9-17.7-5.8-1-.6-2.3-1-3.7-1-4.2 0-7.3 3.2-7.3 7.4 0 3 1.6 5.2 3.5 6.4 7.9 5 16.6 7.6 24.8 7.6 14 0 26-5.9 26-20.5v-.3c-.1-12.1-11.3-17.1-21.1-20.5m67.7-27.1c15.9 0 28.7 14.7 28.7 34.1 0 19.5-12.9 34.1-28.7 34.1-7.1 0-13.6-2.9-18.6-7.9v22.4c0 4.9-4 8.9-8.9 8.9s-8.9-3.9-8.9-8.9v-73.3c0-4.9 3.9-8.9 8.9-8.9 4.5 0 8.1 3.3 8.8 7.5 5-5 11.5-8 18.7-8m-3.4 52.1c8.6 0 15.5-7.4 15.5-18s-6.9-18-15.5-18-15.4 7.4-15.4 18 6.8 18 15.4 18m-244.5-36.6 41.7-49.8c2.1-2.5 3.1-5.2 2.9-8.1-.2-2.5-1.4-4.8-3.4-6.5-1.8-1.5-3.9-2.3-6.2-2.3-2.2 0-5.3.7-8.1 4.1l-35.9 40.6 7.6-31.9c.9-3.2.6-6.1-.9-8.5-1.2-2.2-3.3-3.8-5.9-4.4-.8-.2-1.7-.3-2.5-.3-3.6 0-8.1 2.1-9.7 8.2l-8.6 31.8-14-62c-1.3-6.6-6.1-8.9-9.8-8.9-.6 0-1.3.1-1.9.2-3.9.8-6.8 3.7-7.6 7.6-.3 1.5-.3 3.1.1 4.9l12.3 60.9-15.3-19.7c-2.9-3.9-6.3-4.7-8.6-4.7-2.1 0-4 .7-5.7 1.9-3.2 2.4-4.6 6.3-3.6 10.1.4 1.5 1.1 2.9 2 4.3l15 20.9-43.3-21.8c-1.9-1-3.7-1.5-5.6-1.5-3.6 0-6.8 1.9-8.5 5.2-1.2 2.3-1.5 4.8-.7 7.2.6 1.9 2 4.5 5.6 6.4l42.7 22.7s-79-2.8-79.2-2.8c-6.7 0-10.4 4.7-10.6 9.5-.1 2.6.8 5 2.6 6.9 1.9 2 4.6 3.2 7.7 3.3l79.9 4.4-18.3 8.7c-1.6.7-2.9 1.6-4 2.8-2.8 2.9-3.5 6.9-1.9 10.6 1.6 3.6 4.9 5.7 8.8 5.7 1.6 0 3.3-.4 4.9-1.1l18-7.6-40.9 48.3c-2.1 2.5-3.1 5.3-2.9 8.1.2 2.5 1.4 4.8 3.4 6.5 1.8 1.5 3.9 2.3 6.2 2.3 2.1 0 5.3-.7 8.2-4.1l42.2-47.6-6.8 26.5c-1.8 6.8 2 11.7 6.7 12.9.8.2 1.7.3 2.5.3 3.5 0 8.1-2.1 9.7-8.1l7.8-26.4 13 61.6c1.3 6.6 6.1 8.9 9.8 8.9.6 0 1.2-.1 1.9-.2 3.9-.8 6.8-3.6 7.6-7.6.3-1.5.3-3.1 0-4.8l-12-63 22.7 28.9c2.9 3.9 6.3 4.7 8.6 4.7 2.1 0 4-.7 5.7-1.9 3.2-2.4 4.6-6.3 3.6-10.1-.4-1.5-1.1-2.9-2.1-4.2l-28.1-38.6s-3.2-4.8-7.5-.1c-6 6.4-14.2 10.8-23.7 10.8-17.4 0-31.5-14.1-31.5-31.5s14.1-31.5 31.5-31.5c10.4 0 19.7 5.1 25.4 12.9 0-.2 3.5 4.2 7 0"/><path d="m618.7 295.9c0-2.2 1.8-4.1 4-4.1 2.3 0 4 1.8 4 4 0 2.2-1.8 4-4 4-2.2.1-4-1.7-4-3.9m7.6 0c0-2-1.5-3.6-3.5-3.6s-3.5 1.6-3.5 3.6c0 2 1.5 3.6 3.5 3.6 1.9 0 3.5-1.6 3.5-3.6m-5.2-1.6c0-.3.2-.5.5-.5h1.4c1 0 1.7.5 1.7 1.4 0 .6-.3 1.1-.8 1.3l.6.8c.1.1.1.2.1.4 0 .3-.2.5-.5.5-.2 0-.3-.1-.4-.2l-1-1.2h-.7v.9c0 .3-.2.5-.5.5s-.5-.2-.5-.5v-3.4zm1.9 1.5c.5 0 .7-.2.7-.6s-.3-.6-.7-.6h-.9v1.2z"/></g></svg>